DBRep_DrawableShape

CASCADE Topology V1, (c) Matra-Datavision
Locations 0
Curve2ds 0
Curves 36
1 -25 25 -25 0 -1 6.123233995736766e-17 
1 -25 -25 -25 0 6.123233995736766e-17 1 
1 -25 25 25 0 -1 6.123233995736766e-17 
1 -25 25 -25 0 6.123233995736766e-17 1 
1 -25 25 -25 1 0 0 
1 25 25 -25 0 -1 6.123233995736766e-17 
1 -25 -25 -25 1 0 0 
1 -25 -25 25 1 0 0 
1 25 -25 -25 0 6.123233995736766e-17 1 
1 -25 25 25 1 0 0 
1 25 25 25 0 -1 6.123233995736766e-17 
1 25 25 -25 0 6.123233995736766e-17 1 
1 0.5 5 0.0044081745177113182 -0.98525814547292845 1.0475274444535989e-17 0.17107421424412791 
6 0 1 0.017632698070846498 5 0.088163490354232182  0.017632698070846498 5.3984568131984684e-18 0.088163490354232488  
1 0.5 2.6992284065992343e-19 0.0044081745177116244 -0.98525814547292845 1.0475274444535989e-17 0.17107421424412791 
6 0 1 0.5 5 0.0044081745177113182  0.5 2.6992284065992343e-19 0.0044081745177116244  
1 0.017632698070846498 5 0.088163490354232182 -1 0 0 
1 -0.017632698070846498 5 0.088163490354232182 -0.98525814547292845 -1.0475274444535989e-17 -0.17107421424412791 
1 -0.5 5 0.0044081745177113182 0 -6.123233995736766e-17 -1 
1 -0.5 5 -0.0044081745177119306 0.98525814547292845 -1.0475274444535989e-17 -0.17107421424412791 
1 -0.017632698070846498 5 -0.088163490354232793 1 0 0 
1 0.017632698070846498 5 -0.088163490354232793 0.98525814547292845 1.0475274444535989e-17 0.17107421424412791 
1 0.5 5 -0.0044081745177119306 0 6.123233995736766e-17 1 
6 0 1 -0.017632698070846498 5 0.088163490354232182  -0.017632698070846498 5.3984568131984684e-18 0.088163490354232488  
1 0.017632698070846498 5.3984568131984684e-18 0.088163490354232488 -1 0 0 
1 -0.017632698070846498 5.3984568131984684e-18 0.088163490354232488 -0.98525814547292845 -1.0475274444535989e-17 -0.17107421424412791 
1 -0.5 2.6992284065992343e-19 0.0044081745177116244 0 -6.123233995736766e-17 -1 
1 -0.5 -2.6992284065992343e-19 -0.0044081745177116244 0.98525814547292845 -1.0475274444535989e-17 -0.17107421424412791 
1 -0.017632698070846498 -5.3984568131984684e-18 -0.088163490354232488 1 0 0 
1 0.017632698070846498 -5.3984568131984684e-18 -0.088163490354232488 0.98525814547292845 1.0475274444535989e-17 0.17107421424412791 
1 0.5 -2.6992284065992343e-19 -0.0044081745177116244 0 6.123233995736766e-17 1 
6 0 1 0.5 5 -0.0044081745177119306  0.5 -2.6992284065992343e-19 -0.0044081745177116244  
6 0 1 -0.5 5 0.0044081745177113182  -0.5 2.6992284065992343e-19 0.0044081745177116244  
6 0 1 -0.5 5 -0.0044081745177119306  -0.5 -2.6992284065992343e-19 -0.0044081745177116244  
6 0 1 -0.017632698070846498 5 -0.088163490354232793  -0.017632698070846498 -5.3984568131984684e-18 -0.088163490354232488  
6 0 1 0.017632698070846498 5 -0.088163490354232793  0.017632698070846498 -5.3984568131984684e-18 -0.088163490354232488  
Polygon3D 0
PolygonOnTriangulations 0
Surfaces 16
1 -25 25 -25 1 0 0 0 -1 6.123233995736766e-17 0 -6.123233995736766e-17 -1 
1 -25 25 -25 0 6.123233995736766e-17 1 0 -1 6.123233995736766e-17 1 0 0 
1 -25 -25 -25 0 -1 6.123233995736766e-17 1 0 0 0 6.123233995736766e-17 1 
1 -25 25 25 0 6.123233995736766e-17 1 0 -1 6.123233995736766e-17 1 0 0 
1 -25 25 -25 0 -1 6.123233995736766e-17 1 0 0 0 6.123233995736766e-17 1 
1 25 25 -25 1 0 0 0 -1 6.123233995736766e-17 0 -6.123233995736766e-17 -1 
1 0.5 2.6992284065992343e-19 0.0044081745177116244 0.17107421424412791 6.0329661709363958e-17 0.98525814547292845 -0.98525814547292845 1.0475274444535989e-17 0.17107421424412791 0 -1 6.123233995736766e-17 
1 0.5 5 0.0044081745177113182 0 1 -6.123233995736766e-17 -0.99996113826031252 -5.3982470197750793e-19 -0.0088160064167620393 -0.0088160064167620393 6.1229960362111776e-17 0.99996113826031252 
1 0.017632698070846498 5.3984568131984684e-18 0.088163490354232488 0 6.123233995736766e-17 1 -1 0 0 0 -1 6.123233995736766e-17 
1 0.5 2.6992284065992343e-19 0.0044081745177116244 0 1 -6.123233995736766e-17 -0.99996113826031252 -5.3982470197750793e-19 -0.0088160064167620393 -0.0088160064167620393 6.1229960362111776e-17 0.99996113826031252 
1 0.5 -2.6992284065992343e-19 -0.0044081745177116244 1 0 0 0 6.123233995736766e-17 1 0 -1 6.123233995736766e-17 
1 -0.017632698070846498 5.3984568131984684e-18 0.088163490354232488 -0.17107421424412791 6.0329661709363958e-17 0.98525814547292845 -0.98525814547292845 -1.0475274444535989e-17 -0.17107421424412791 0 -1 6.123233995736766e-17 
1 -0.5 2.6992284065992343e-19 0.0044081745177116244 -1 0 0 0 -6.123233995736766e-17 -1 0 -1 6.123233995736766e-17 
1 -0.5 -2.6992284065992343e-19 -0.0044081745177116244 -0.17107421424412791 -6.0329661709363958e-17 -0.98525814547292845 0.98525814547292845 -1.0475274444535989e-17 -0.17107421424412791 0 -1 6.123233995736766e-17 
1 -0.017632698070846498 -5.3984568131984684e-18 -0.088163490354232488 0 -6.123233995736766e-17 -1 1 0 0 0 -1 6.123233995736766e-17 
1 0.017632698070846498 -5.3984568131984684e-18 -0.088163490354232488 0.17107421424412791 -6.0329661709363958e-17 -0.98525814547292845 0.98525814547292845 1.0475274444535989e-17 0.17107421424412791 0 -1 6.123233995736766e-17 
Triangulations 0

TShapes 96
Ve
1e-07
-25 -25 -25
0 0

0101101
*
Ve
1e-07
-25 25 -25
0 0

0101101
*
Ed
 1e-07 1 1 0
1  1 0 0 50
0

0101000
-96 0 +95 0 *
Ve
1e-07
-25 -25 25
0 0

0101101
*
Ed
 1e-07 1 1 0
1  2 0 0 50
0

0101000
-93 0 +96 0 *
Ve
1e-07
-25 25 25
0 0

0101101
*
Ed
 1e-07 1 1 0
1  3 0 0 50
0

0101000
-93 0 +91 0 *
Ed
 1e-07 1 1 0
1  4 0 0 50
0

0101000
-91 0 +95 0 *
Wi

0101100
-94 0 -92 0 +90 0 +89 0 *
Fa
0  1e-07 1 0

0111000
+88 0 *
Ve
1e-07
25 25 -25
0 0

0101101
*
Ed
 1e-07 1 1 0
1  5 0 0 50
0

0101000
-86 0 +95 0 *
Ve
1e-07
25 -25 -25
0 0

0101101
*
Ed
 1e-07 1 1 0
1  6 0 0 50
0

0101000
-84 0 +86 0 *
Ed
 1e-07 1 1 0
1  7 0 0 50
0

0101000
-84 0 +96 0 *
Wi

0101100
-85 0 -83 0 +82 0 +94 0 *
Fa
0  1e-07 2 0

0111000
+81 0 *
Ve
1e-07
25 -25 25
0 0

0101101
*
Ed
 1e-07 1 1 0
1  8 0 0 50
0

0101000
-79 0 +93 0 *
Ed
 1e-07 1 1 0
1  9 0 0 50
0

0101000
-79 0 +84 0 *
Wi

0101100
-92 0 -78 0 +77 0 +82 0 *
Fa
0  1e-07 3 0

0111000
+76 0 *
Ve
1e-07
25 25 25
0 0

0101101
*
Ed
 1e-07 1 1 0
1  10 0 0 50
0

0101000
-74 0 +91 0 *
Ed
 1e-07 1 1 0
1  11 0 0 50
0

0101000
-79 0 +74 0 *
Wi

0101100
-73 0 -72 0 +78 0 +90 0 *
Fa
0  1e-07 4 0

0111000
+71 0 *
Ed
 1e-07 1 1 0
1  12 0 0 50
0

0101000
-74 0 +86 0 *
Wi

0101100
-89 0 -73 0 +69 0 +85 0 *
Fa
0  1e-07 5 0

0111000
+68 0 *
Wi

0101100
-83 0 -77 0 +72 0 +69 0 *
Fa
0  1e-07 6 0

0111000
+66 0 *
Sh

0101100
-87 0 -80 0 +75 0 +70 0 -67 0 +65 0 *
Ve
1e-07
0.5 5 0.00440817451771132
0 0

0101101
*
Ve
1e-07
0.0176326980708465 5 0.0881634903542322
0 0

0101101
*
Ed
 1e-07 1 1 0
1  13 0 0 0.489584688180999
0

0101000
+63 0 -62 0 *
Ve
1e-07
0.0176326980708465 5.39845681319847e-18 0.0881634903542325
0 0

0101101
*
Ed
 1e-07 1 1 0
1  14 0 0 1
0

0101000
+62 0 -60 0 *
Ve
1e-07
0.5 2.69922840659923e-19 0.00440817451771162
0 0

0101101
*
Ed
 1e-07 1 1 0
1  15 0 0 0.489584688180999
0

0101000
+58 0 -60 0 *
Ed
 1e-07 1 1 0
1  16 0 0 1
0

0101000
+63 0 -58 0 *
Wi

0101000
+61 0 +59 0 -57 0 -56 0 *
Fa
0  1e-07 7 0

0111000
+55 0 *
Ve
1e-07
-0.0176326980708465 5 0.0881634903542322
0 0

0101101
*
Ed
 1e-07 1 1 0
1  17 0 0 0.035265396141693
0

0101000
+62 0 -53 0 *
Ve
1e-07
-0.5 5 0.00440817451771132
0 0

0101101
*
Ed
 1e-07 1 1 0
1  18 0 0 0.489584688180999
0

0101000
+53 0 -51 0 *
Ve
1e-07
-0.5 5 -0.00440817451771193
0 0

0101101
*
Ed
 1e-07 1 1 0
1  19 0 0 0.00881634903542325
0

0101000
+51 0 -49 0 *
Ve
1e-07
-0.0176326980708465 5 -0.0881634903542328
0 0

0101101
*
Ed
 1e-07 1 1 0
1  20 0 0 0.489584688180999
0

0101000
+49 0 -47 0 *
Ve
1e-07
0.0176326980708465 5 -0.0881634903542328
0 0

0101101
*
Ed
 1e-07 1 1 0
1  21 0 0 0.035265396141693
0

0101000
+47 0 -45 0 *
Ve
1e-07
0.5 5 -0.00440817451771193
0 0

0101101
*
Ed
 1e-07 1 1 0
1  22 0 0 0.489584688180999
0

0101000
+45 0 -43 0 *
Ed
 1e-07 1 1 0
1  23 0 0 0.00881634903542325
0

0101000
+43 0 -63 0 *
Wi

0101100
+61 0 +52 0 +50 0 +48 0 +46 0 +44 0 +42 0 +41 0 *
Fa
0  1e-07 8 0

0111000
-40 0 *
Ve
1e-07
-0.0176326980708465 5.39845681319847e-18 0.0881634903542325
0 0

0101101
*
Ed
 1e-07 1 1 0
1  24 0 0 1
0

0101000
+53 0 -38 0 *
Ed
 1e-07 1 1 0
1  25 0 0 0.035265396141693
0

0101000
+60 0 -38 0 *
Wi

0101000
+52 0 +37 0 -36 0 -59 0 *
Fa
0  1e-07 9 0

0111000
+35 0 *
Ve
1e-07
-0.5 2.69922840659923e-19 0.00440817451771162
0 0

0101101
*
Ed
 1e-07 1 1 0
1  26 0 0 0.489584688180999
0

0101000
+38 0 -33 0 *
Ve
1e-07
-0.5 -2.69922840659923e-19 -0.00440817451771162
0 0

0101101
*
Ed
 1e-07 1 1 0
1  27 0 0 0.00881634903542325
0

0101000
+33 0 -31 0 *
Ve
1e-07
-0.0176326980708465 -5.39845681319847e-18 -0.0881634903542325
0 0

0101101
*
Ed
 1e-07 1 1 0
1  28 0 0 0.489584688180999
0

0101000
+31 0 -29 0 *
Ve
1e-07
0.0176326980708465 -5.39845681319847e-18 -0.0881634903542325
0 0

0101101
*
Ed
 1e-07 1 1 0
1  29 0 0 0.035265396141693
0

0101000
+29 0 -27 0 *
Ve
1e-07
0.5 -2.69922840659923e-19 -0.00440817451771162
0 0

0101101
*
Ed
 1e-07 1 1 0
1  30 0 0 0.489584688180999
0

0101000
+27 0 -25 0 *
Ed
 1e-07 1 1 0
1  31 0 0 0.00881634903542325
0

0101000
+25 0 -58 0 *
Wi

0101100
+57 0 +36 0 +32 0 +30 0 +28 0 +26 0 +24 0 +23 0 *
Fa
0  1e-07 10 0

0111000
-22 0 *
Ed
 1e-07 1 1 0
1  32 0 0 1
0

0101000
+43 0 -25 0 *
Wi

0101000
+41 0 +56 0 -23 0 -20 0 *
Fa
0  1e-07 11 0

0111000
+19 0 *
Ed
 1e-07 1 1 0
1  33 0 0 1
0

0101000
+51 0 -33 0 *
Wi

0101000
+50 0 +17 0 -32 0 -37 0 *
Fa
0  1e-07 12 0

0111000
+16 0 *
Ed
 1e-07 1 1 0
1  34 0 0 1
0

0101000
+49 0 -31 0 *
Wi

0101000
+48 0 +14 0 -30 0 -17 0 *
Fa
0  1e-07 13 0

0111000
+13 0 *
Ed
 1e-07 1 1 0
1  35 0 0 1
0

0101000
+47 0 -29 0 *
Wi

0101000
+46 0 +11 0 -28 0 -14 0 *
Fa
0  1e-07 14 0

0111000
+10 0 *
Ed
 1e-07 1 1 0
1  36 0 0 1
0

0101000
+45 0 -27 0 *
Wi

0101000
+44 0 +8 0 -26 0 -11 0 *
Fa
0  1e-07 15 0

0111000
+7 0 *
Wi

0101000
+42 0 +20 0 -24 0 -8 0 *
Fa
0  1e-07 16 0

0111000
+5 0 *
Sh

0101100
-54 0 -39 0 -34 0 +21 0 -18 0 -15 0 -12 0 -9 0 -6 0 -4 0 
*
So

0100000
+64 0 +3 0 *
Co

1100000
+2 0 *

+1 0 
##EGADS HEADER FILE-REV 1 ##
0
  1  2  16  16  36  24  6
1 5 1
_body
21
1 5 1
_brch
77
3 7 44
capsAIM
#egadsTessAIM;pointwiseAIM;fun3dAIM;tetgenAIM
2 14 1
capsMeshLength
 1.000000000000e+00
2 13 1
__@@nchange__
 1.000000000000e+01
1 16 1
__numRemaining__
0
    2 0 9
1 5 2
_body
17 1 
1 5 4
_brch
69 1 64 1 
1 5 4
_hist
17 19 20 21 
1 9 8
__trace__
17 1 19 1 20 1 21 1 
3 9 8
capsGroup
#Farfield
3 8 8
capsMesh
#Farfield
2 14 1
capsMeshLength
 3.000000000000e+00
1 7 3
_faceID
17 1 1 
3 7 8
PW:Name
#Farfield
    2 1 9
1 5 2
_body
17 3 
1 5 4
_brch
69 3 64 1 
1 5 4
_hist
17 19 20 21 
1 9 8
__trace__
17 3 19 2 20 2 21 2 
3 9 8
capsGroup
#Farfield
3 8 8
capsMesh
#Farfield
2 14 1
capsMeshLength
 3.000000000000e+00
1 7 3
_faceID
17 3 1 
3 7 8
PW:Name
#Farfield
    2 2 9
1 5 2
_body
17 6 
1 5 4
_brch
69 6 64 1 
1 5 4
_hist
17 19 20 21 
1 9 8
__trace__
17 6 19 3 20 3 21 3 
3 9 8
capsGroup
#Farfield
3 8 8
capsMesh
#Farfield
2 14 1
capsMeshLength
 3.000000000000e+00
1 7 3
_faceID
17 6 1 
3 7 8
PW:Name
#Farfield
    2 3 9
1 5 2
_body
17 4 
1 5 4
_brch
69 4 64 1 
1 5 4
_hist
17 19 20 21 
1 9 8
__trace__
17 4 19 4 20 4 21 4 
3 9 8
capsGroup
#Farfield
3 8 8
capsMesh
#Farfield
2 14 1
capsMeshLength
 3.000000000000e+00
1 7 3
_faceID
17 4 1 
3 7 8
PW:Name
#Farfield
    2 4 9
1 5 2
_body
17 5 
1 5 4
_brch
69 5 64 1 
1 5 4
_hist
17 19 20 21 
1 9 8
__trace__
17 5 19 5 20 5 21 5 
3 9 8
capsGroup
#Farfield
3 8 8
capsMesh
#Farfield
2 14 1
capsMeshLength
 3.000000000000e+00
1 7 3
_faceID
17 5 1 
3 7 8
PW:Name
#Farfield
    2 5 9
1 5 2
_body
17 2 
1 5 4
_brch
69 2 64 1 
1 5 4
_hist
17 19 20 21 
1 9 8
__trace__
17 2 19 6 20 6 21 6 
3 9 8
capsGroup
#Farfield
3 8 8
capsMesh
#Farfield
2 14 1
capsMeshLength
 3.000000000000e+00
1 7 3
_faceID
17 2 1 
3 7 8
PW:Name
#Farfield
    2 6 12
1 5 2
_body
16 3 
1 5 4
_brch
71 16 64 1 
1 5 4
_hist
16 19 20 21 
1 9 8
__trace__
16 1 19 7 20 7 21 7 
3 9 3
compGroup
#OML
3 4 3
comp
#OML
3 9 4
capsGroup
#wall
3 8 4
capsMesh
#wall
3 14 3
capsMeshLength
#0.1
1 11 1
__trimmed__
1
1 7 3
_faceID
16 3 1 
3 7 4
PW:Name
#wall
    2 7 12
1 5 2
_body
16 1 
1 5 4
_brch
71 16 64 1 
1 5 4
_hist
16 19 20 21 
1 9 8
__trace__
16 9 19 8 20 8 21 8 
3 9 3
compGroup
#OML
3 4 3
comp
#OML
3 9 4
capsGroup
#wall
3 8 4
capsMesh
#wall
3 14 3
capsMeshLength
#0.1
1 11 1
__trimmed__
1
1 7 3
_faceID
16 1 1 
3 7 4
PW:Name
#wall
    2 8 12
1 5 2
_body
16 4 
1 5 4
_brch
71 16 64 1 
1 5 4
_hist
16 19 20 21 
1 9 8
__trace__
16 2 19 9 20 9 21 9 
3 9 3
compGroup
#OML
3 4 3
comp
#OML
3 9 4
capsGroup
#wall
3 8 4
capsMesh
#wall
3 14 3
capsMeshLength
#0.1
1 11 1
__trimmed__
1
1 7 3
_faceID
16 4 1 
3 7 4
PW:Name
#wall
    2 9 12
1 5 2
_body
16 2 
1 5 4
_brch
71 16 64 1 
1 5 4
_hist
16 19 20 21 
1 9 8
__trace__
16 10 19 10 20 10 21 10 
3 9 3
compGroup
#OML
3 4 3
comp
#OML
3 9 4
capsGroup
#wall
3 8 4
capsMesh
#wall
3 14 3
capsMeshLength
#0.1
1 11 1
__trimmed__
1
1 7 3
_faceID
16 2 1 
3 7 4
PW:Name
#wall
    2 10 12
1 5 2
_body
16 10 
1 5 4
_brch
71 16 64 1 
1 5 4
_hist
16 19 20 21 
1 9 8
__trace__
16 8 19 11 20 11 21 11 
3 9 3
compGroup
#OML
3 4 3
comp
#OML
3 9 4
capsGroup
#wall
3 8 4
capsMesh
#wall
3 14 3
capsMeshLength
#0.1
1 11 1
__trimmed__
1
1 7 3
_faceID
16 10 1 
3 7 4
PW:Name
#wall
    2 11 12
1 5 2
_body
16 5 
1 5 4
_brch
71 16 64 1 
1 5 4
_hist
16 19 20 21 
1 9 8
__trace__
16 3 19 12 20 12 21 12 
3 9 3
compGroup
#OML
3 4 3
comp
#OML
3 9 4
capsGroup
#wall
3 8 4
capsMesh
#wall
3 14 3
capsMeshLength
#0.1
1 11 1
__trimmed__
1
1 7 3
_faceID
16 5 1 
3 7 4
PW:Name
#wall
    2 12 12
1 5 2
_body
16 6 
1 5 4
_brch
71 16 64 1 
1 5 4
_hist
16 19 20 21 
1 9 8
__trace__
16 4 19 13 20 13 21 13 
3 9 3
compGroup
#OML
3 4 3
comp
#OML
3 9 4
capsGroup
#wall
3 8 4
capsMesh
#wall
3 14 3
capsMeshLength
#0.1
1 11 1
__trimmed__
1
1 7 3
_faceID
16 6 1 
3 7 4
PW:Name
#wall
    2 13 12
1 5 2
_body
16 7 
1 5 4
_brch
71 16 64 1 
1 5 4
_hist
16 19 20 21 
1 9 8
__trace__
16 5 19 14 20 14 21 14 
3 9 3
compGroup
#OML
3 4 3
comp
#OML
3 9 4
capsGroup
#wall
3 8 4
capsMesh
#wall
3 14 3
capsMeshLength
#0.1
1 11 1
__trimmed__
1
1 7 3
_faceID
16 7 1 
3 7 4
PW:Name
#wall
    2 14 12
1 5 2
_body
16 8 
1 5 4
_brch
71 16 64 1 
1 5 4
_hist
16 19 20 21 
1 9 8
__trace__
16 6 19 15 20 15 21 15 
3 9 3
compGroup
#OML
3 4 3
comp
#OML
3 9 4
capsGroup
#wall
3 8 4
capsMesh
#wall
3 14 3
capsMeshLength
#0.1
1 11 1
__trimmed__
1
1 7 3
_faceID
16 8 1 
3 7 4
PW:Name
#wall
    2 15 12
1 5 2
_body
16 9 
1 5 4
_brch
71 16 64 1 
1 5 4
_hist
16 19 20 21 
1 9 8
__trace__
16 7 19 16 20 16 21 16 
3 9 3
compGroup
#OML
3 4 3
comp
#OML
3 9 4
capsGroup
#wall
3 8 4
capsMesh
#wall
3 14 3
capsMeshLength
#0.1
1 11 1
__trimmed__
1
1 7 3
_faceID
16 9 1 
3 7 4
PW:Name
#wall
    4 0 4
1 9 8
__trace__
17 1 19 1 20 1 21 1 
1 5 2
_body
17 10003 
1 6 1
_nface
2
1 7 5
_edgeID
17 1 17 3 1 
    4 1 4
1 9 8
__trace__
17 2 19 2 20 2 21 2 
1 5 2
_body
17 10006 
1 6 1
_nface
2
1 7 5
_edgeID
17 1 17 6 1 
    4 2 4
1 9 8
__trace__
17 3 19 3 20 3 21 3 
1 5 2
_body
17 40001 
1 6 1
_nface
2
1 7 5
_edgeID
17 1 17 4 1 
    4 3 4
1 9 8
__trace__
17 4 19 4 20 4 21 4 
1 5 2
_body
17 50001 
1 6 1
_nface
2
1 7 5
_edgeID
17 1 17 5 1 
    4 4 4
1 9 8
__trace__
17 9 19 5 20 5 21 5 
1 5 2
_body
17 30005 
1 6 1
_nface
2
1 7 5
_edgeID
17 3 17 5 1 
    4 5 4
1 9 8
__trace__
17 5 19 6 20 6 21 6 
1 5 2
_body
17 30002 
1 6 1
_nface
2
1 7 5
_edgeID
17 2 17 3 1 
    4 6 4
1 9 8
__trace__
17 10 19 7 20 7 21 7 
1 5 2
_body
17 60003 
1 6 1
_nface
2
1 7 5
_edgeID
17 3 17 6 1 
    4 7 4
1 9 8
__trace__
17 12 19 8 20 8 21 8 
1 5 2
_body
17 40006 
1 6 1
_nface
2
1 7 5
_edgeID
17 4 17 6 1 
    4 8 4
1 9 8
__trace__
17 6 19 9 20 9 21 9 
1 5 2
_body
17 60002 
1 6 1
_nface
2
1 7 5
_edgeID
17 2 17 6 1 
    4 9 4
1 9 8
__trace__
17 11 19 10 20 10 21 10 
1 5 2
_body
17 50004 
1 6 1
_nface
2
1 7 5
_edgeID
17 4 17 5 1 
    4 10 4
1 9 8
__trace__
17 7 19 11 20 11 21 11 
1 5 2
_body
17 20004 
1 6 1
_nface
2
1 7 5
_edgeID
17 2 17 4 1 
    4 11 4
1 9 8
__trace__
17 8 19 12 20 12 21 12 
1 5 2
_body
17 20005 
1 6 1
_nface
2
1 7 5
_edgeID
17 2 17 5 1 
    4 12 4
1 9 14
__trace__
10 1 14 1 15 1 16 1 19 13 20 13 21 13 
1 5 2
_body
16 10003 
1 6 1
_nface
2
1 7 5
_edgeID
16 1 16 3 1 
    4 13 4
1 9 8
__trace__
16 2 19 14 20 14 21 14 
1 5 2
_body
16 40003 
1 6 1
_nface
2
1 7 5
_edgeID
16 3 16 4 1 
    4 14 4
1 9 12
__trace__
10 1 12 1 16 3 19 15 20 15 21 15 
1 5 2
_body
16 30002 
1 6 1
_nface
2
1 7 5
_edgeID
16 2 16 3 1 
    4 15 4
1 9 8
__trace__
16 4 19 16 20 16 21 16 
1 5 2
_body
16 30010 
1 6 1
_nface
2
1 7 5
_edgeID
16 3 16 10 1 
    4 16 4
1 9 14
__trace__
10 2 14 2 15 2 16 5 19 17 20 17 21 17 
1 5 2
_body
16 10004 
1 6 1
_nface
2
1 7 5
_edgeID
16 1 16 4 1 
    4 17 4
1 9 14
__trace__
10 3 14 3 15 3 16 8 19 18 20 18 21 18 
1 5 2
_body
16 10005 
1 6 1
_nface
2
1 7 5
_edgeID
16 1 16 5 1 
    4 18 4
1 9 14
__trace__
10 4 14 4 15 4 16 11 19 19 20 19 21 19 
1 5 2
_body
16 10006 
1 6 1
_nface
2
1 7 5
_edgeID
16 1 16 6 1 
    4 19 4
1 9 14
__trace__
10 5 14 5 15 5 16 14 19 20 20 20 21 20 
1 5 2
_body
16 10007 
1 6 1
_nface
2
1 7 5
_edgeID
16 1 16 7 1 
    4 20 4
1 9 14
__trace__
10 6 14 6 15 6 16 17 19 21 20 21 21 21 
1 5 2
_body
16 10008 
1 6 1
_nface
2
1 7 5
_edgeID
16 1 16 8 1 
    4 21 4
1 9 14
__trace__
10 7 14 7 15 7 16 20 19 22 20 22 21 22 
1 5 2
_body
16 10009 
1 6 1
_nface
2
1 7 5
_edgeID
16 1 16 9 1 
    4 22 4
1 9 14
__trace__
10 8 14 8 15 8 16 23 19 23 20 23 21 23 
1 5 2
_body
16 10010 
1 6 1
_nface
2
1 7 5
_edgeID
16 1 16 10 1 
    4 23 4
1 9 8
__trace__
16 6 19 24 20 24 21 24 
1 5 2
_body
16 50004 
1 6 1
_nface
2
1 7 5
_edgeID
16 4 16 5 1 
    4 24 4
1 9 12
__trace__
10 2 12 2 16 7 19 25 20 25 21 25 
1 5 2
_body
16 40002 
1 6 1
_nface
2
1 7 5
_edgeID
16 2 16 4 1 
    4 25 4
1 9 12
__trace__
10 3 12 3 16 10 19 26 20 26 21 26 
1 5 2
_body
16 50002 
1 6 1
_nface
2
1 7 5
_edgeID
16 2 16 5 1 
    4 26 4
1 9 12
__trace__
10 4 12 4 16 13 19 27 20 27 21 27 
1 5 2
_body
16 60002 
1 6 1
_nface
2
1 7 5
_edgeID
16 2 16 6 1 
    4 27 4
1 9 12
__trace__
10 5 12 5 16 16 19 28 20 28 21 28 
1 5 2
_body
16 70002 
1 6 1
_nface
2
1 7 5
_edgeID
16 2 16 7 1 
    4 28 4
1 9 12
__trace__
10 6 12 6 16 19 19 29 20 29 21 29 
1 5 2
_body
16 80002 
1 6 1
_nface
2
1 7 5
_edgeID
16 2 16 8 1 
    4 29 4
1 9 12
__trace__
10 7 12 7 16 22 19 30 20 30 21 30 
1 5 2
_body
16 90002 
1 6 1
_nface
2
1 7 5
_edgeID
16 2 16 9 1 
    4 30 4
1 9 12
__trace__
10 8 12 8 16 24 19 31 20 31 21 31 
1 5 2
_body
16 100002 
1 6 1
_nface
2
1 7 5
_edgeID
16 2 16 10 1 
    4 31 4
1 9 8
__trace__
16 21 19 32 20 32 21 32 
1 5 2
_body
16 100009 
1 6 1
_nface
2
1 7 5
_edgeID
16 9 16 10 1 
    4 32 4
1 9 8
__trace__
16 9 19 33 20 33 21 33 
1 5 2
_body
16 60005 
1 6 1
_nface
2
1 7 5
_edgeID
16 5 16 6 1 
    4 33 4
1 9 8
__trace__
16 12 19 34 20 34 21 34 
1 5 2
_body
16 70006 
1 6 1
_nface
2
1 7 5
_edgeID
16 6 16 7 1 
    4 34 4
1 9 8
__trace__
16 15 19 35 20 35 21 35 
1 5 2
_body
16 80007 
1 6 1
_nface
2
1 7 5
_edgeID
16 7 16 8 1 
    4 35 4
1 9 8
__trace__
16 18 19 36 20 36 21 36 
1 5 2
_body
16 90008 
1 6 1
_nface
2
1 7 5
_edgeID
16 8 16 9 1 
    5 0 3
1 9 8
__trace__
17 1 19 1 20 1 21 1 
1 6 1
_nedge
3
1 7 1
_nodeID
1
    5 1 3
1 9 8
__trace__
17 2 19 2 20 2 21 2 
1 6 1
_nedge
3
1 7 1
_nodeID
2
    5 2 3
1 9 8
__trace__
17 3 19 3 20 3 21 3 
1 6 1
_nedge
3
1 7 1
_nodeID
3
    5 3 3
1 9 8
__trace__
17 4 19 4 20 4 21 4 
1 6 1
_nedge
3
1 7 1
_nodeID
4
    5 4 3
1 9 8
__trace__
17 6 19 5 20 5 21 5 
1 6 1
_nedge
3
1 7 1
_nodeID
5
    5 5 3
1 9 8
__trace__
17 5 19 6 20 6 21 6 
1 6 1
_nedge
3
1 7 1
_nodeID
6
    5 6 3
1 9 8
__trace__
17 7 19 7 20 7 21 7 
1 6 1
_nedge
3
1 7 1
_nodeID
7
    5 7 3
1 9 8
__trace__
17 8 19 8 20 8 21 8 
1 6 1
_nedge
3
1 7 1
_nodeID
8
    5 8 3
1 9 14
__trace__
10 1 14 1 15 1 16 1 19 9 20 9 21 9 
1 6 1
_nedge
3
1 7 1
_nodeID
9
    5 9 3
1 9 14
__trace__
10 2 14 2 15 2 16 2 19 10 20 10 21 10 
1 6 1
_nedge
3
1 7 1
_nodeID
10
    5 10 3
1 9 12
__trace__
10 2 12 2 16 3 19 11 20 11 21 11 
1 6 1
_nedge
3
1 7 1
_nodeID
11
    5 11 3
1 9 12
__trace__
10 1 12 1 16 4 19 12 20 12 21 12 
1 6 1
_nedge
3
1 7 1
_nodeID
12
    5 12 3
1 9 14
__trace__
10 3 14 3 15 3 16 5 19 13 20 13 21 13 
1 6 1
_nedge
3
1 7 1
_nodeID
13
    5 13 3
1 9 14
__trace__
10 4 14 4 15 4 16 7 19 14 20 14 21 14 
1 6 1
_nedge
3
1 7 1
_nodeID
14
    5 14 3
1 9 14
__trace__
10 5 14 5 15 5 16 9 19 15 20 15 21 15 
1 6 1
_nedge
3
1 7 1
_nodeID
15
    5 15 3
1 9 14
__trace__
10 6 14 6 15 6 16 11 19 16 20 16 21 16 
1 6 1
_nedge
3
1 7 1
_nodeID
16
    5 16 3
1 9 14
__trace__
10 7 14 7 15 7 16 13 19 17 20 17 21 17 
1 6 1
_nedge
3
1 7 1
_nodeID
17
    5 17 3
1 9 14
__trace__
10 8 14 8 15 8 16 15 19 18 20 18 21 18 
1 6 1
_nedge
3
1 7 1
_nodeID
18
    5 18 3
1 9 12
__trace__
10 3 12 3 16 6 19 19 20 19 21 19 
1 6 1
_nedge
3
1 7 1
_nodeID
19
    5 19 3
1 9 12
__trace__
10 4 12 4 16 8 19 20 20 20 21 20 
1 6 1
_nedge
3
1 7 1
_nodeID
20
    5 20 3
1 9 12
__trace__
10 5 12 5 16 10 19 21 20 21 21 21 
1 6 1
_nedge
3
1 7 1
_nodeID
21
    5 21 3
1 9 12
__trace__
10 6 12 6 16 12 19 22 20 22 21 22 
1 6 1
_nedge
3
1 7 1
_nodeID
22
    5 22 3
1 9 12
__trace__
10 7 12 7 16 14 19 23 20 23 21 23 
1 6 1
_nedge
3
1 7 1
_nodeID
23
    5 23 3
1 9 12
__trace__
10 8 12 8 16 16 19 24 20 24 21 24 
1 6 1
_nedge
3
1 7 1
_nodeID
24
    0 0 0
